<mxfile host="app.diagrams.net" modified="2024-07-16T03:30:36.753Z" agent="Mozilla/5.0 (Windows NT 10.0; Win64; x64) AppleWebKit/537.36 (KHTML, like Gecko) Chrome/126.0.0.0 Safari/537.36 Edg/126.0.0.0" etag="Gd-CtanepfeUzyPEXXdh" version="24.4.0" type="github">
  <diagram name="第 1 页" id="-N1EzxPn7FLmp4bG6Ki7">
    <mxGraphModel dx="1213" dy="793" grid="1" gridSize="10" guides="1" tooltips="1" connect="1" arrows="1" fold="1" page="1" pageScale="1" pageWidth="827" pageHeight="1169" math="0" shadow="0">
      <root>
        <mxCell id="0" />
        <mxCell id="1" parent="0" />
        <mxCell id="mFH2gtZomauXbnNEPlVY-12" style="edgeStyle=orthogonalEdgeStyle;rounded=0;orthogonalLoop=1;jettySize=auto;html=1;" edge="1" parent="1" source="mFH2gtZomauXbnNEPlVY-1">
          <mxGeometry relative="1" as="geometry">
            <mxPoint x="419" y="430" as="targetPoint" />
          </mxGeometry>
        </mxCell>
        <mxCell id="mFH2gtZomauXbnNEPlVY-1" value="rpa导出程序" style="rounded=1;whiteSpace=wrap;html=1;fillColor=#dae8fc;strokeColor=#6c8ebf;" vertex="1" parent="1">
          <mxGeometry x="359" y="320" width="120" height="60" as="geometry" />
        </mxCell>
        <mxCell id="mFH2gtZomauXbnNEPlVY-11" style="edgeStyle=orthogonalEdgeStyle;rounded=0;orthogonalLoop=1;jettySize=auto;html=1;entryX=0.5;entryY=0;entryDx=0;entryDy=0;" edge="1" parent="1" source="mFH2gtZomauXbnNEPlVY-8" target="mFH2gtZomauXbnNEPlVY-1">
          <mxGeometry relative="1" as="geometry">
            <mxPoint x="419" y="320" as="targetPoint" />
          </mxGeometry>
        </mxCell>
        <mxCell id="mFH2gtZomauXbnNEPlVY-8" value="" style="ellipse;whiteSpace=wrap;html=1;aspect=fixed;fillColor=#d5e8d4;strokeColor=#82b366;" vertex="1" parent="1">
          <mxGeometry x="409" y="260" width="20" height="20" as="geometry" />
        </mxCell>
        <mxCell id="mFH2gtZomauXbnNEPlVY-13" value="" style="shape=link;html=1;rounded=0;width=-6;" edge="1" parent="1">
          <mxGeometry width="100" relative="1" as="geometry">
            <mxPoint x="317" y="430" as="sourcePoint" />
            <mxPoint x="521" y="430" as="targetPoint" />
          </mxGeometry>
        </mxCell>
        <mxCell id="mFH2gtZomauXbnNEPlVY-15" value="rpa_type = 1，导出xml" style="rounded=0;whiteSpace=wrap;html=1;fillColor=#e1d5e7;strokeColor=#9673a6;" vertex="1" parent="1">
          <mxGeometry x="190" y="390" width="130" height="30" as="geometry" />
        </mxCell>
        <mxCell id="mFH2gtZomauXbnNEPlVY-16" value="rpa_type = 2，导出swt" style="rounded=0;whiteSpace=wrap;html=1;fillColor=#e1d5e7;strokeColor=#9673a6;" vertex="1" parent="1">
          <mxGeometry x="520" y="390" width="130" height="30" as="geometry" />
        </mxCell>
        <mxCell id="mFH2gtZomauXbnNEPlVY-17" value="" style="endArrow=classic;html=1;rounded=0;entryX=0.5;entryY=0;entryDx=0;entryDy=0;" edge="1" parent="1" target="mFH2gtZomauXbnNEPlVY-18">
          <mxGeometry width="50" height="50" relative="1" as="geometry">
            <mxPoint x="320" y="440" as="sourcePoint" />
            <mxPoint x="240" y="520" as="targetPoint" />
          </mxGeometry>
        </mxCell>
        <mxCell id="mFH2gtZomauXbnNEPlVY-18" value="仅支持QDG4导出" style="rounded=1;whiteSpace=wrap;html=1;fillColor=#fff2cc;strokeColor=#d6b656;" vertex="1" parent="1">
          <mxGeometry x="180" y="520" width="120" height="60" as="geometry" />
        </mxCell>
        <mxCell id="mFH2gtZomauXbnNEPlVY-19" value="" style="endArrow=classic;html=1;rounded=0;entryX=0.5;entryY=0;entryDx=0;entryDy=0;" edge="1" parent="1" target="mFH2gtZomauXbnNEPlVY-20">
          <mxGeometry width="50" height="50" relative="1" as="geometry">
            <mxPoint x="520" y="440" as="sourcePoint" />
            <mxPoint x="600" y="520" as="targetPoint" />
          </mxGeometry>
        </mxCell>
        <mxCell id="mFH2gtZomauXbnNEPlVY-20" value="支持QDG3/4、QDY3/4" style="rounded=1;whiteSpace=wrap;html=1;fillColor=#fff2cc;strokeColor=#d6b656;" vertex="1" parent="1">
          <mxGeometry x="540" y="520" width="120" height="60" as="geometry" />
        </mxCell>
        <mxCell id="mFH2gtZomauXbnNEPlVY-21" value="" style="endArrow=classic;html=1;rounded=0;exitX=0.5;exitY=1;exitDx=0;exitDy=0;" edge="1" parent="1" source="mFH2gtZomauXbnNEPlVY-18">
          <mxGeometry width="50" height="50" relative="1" as="geometry">
            <mxPoint x="260" y="750" as="sourcePoint" />
            <mxPoint x="240" y="790" as="targetPoint" />
          </mxGeometry>
        </mxCell>
        <mxCell id="mFH2gtZomauXbnNEPlVY-30" value="rpa_type = 1" style="edgeLabel;html=1;align=center;verticalAlign=middle;resizable=0;points=[];" vertex="1" connectable="0" parent="mFH2gtZomauXbnNEPlVY-21">
          <mxGeometry x="0.3619" y="-3" relative="1" as="geometry">
            <mxPoint as="offset" />
          </mxGeometry>
        </mxCell>
        <mxCell id="mFH2gtZomauXbnNEPlVY-22" value="" style="endArrow=classic;html=1;rounded=0;exitX=0.5;exitY=1;exitDx=0;exitDy=0;entryX=0.5;entryY=0;entryDx=0;entryDy=0;" edge="1" parent="1" source="mFH2gtZomauXbnNEPlVY-20" target="mFH2gtZomauXbnNEPlVY-24">
          <mxGeometry width="50" height="50" relative="1" as="geometry">
            <mxPoint x="730" y="700" as="sourcePoint" />
            <mxPoint x="520" y="640" as="targetPoint" />
          </mxGeometry>
        </mxCell>
        <mxCell id="mFH2gtZomauXbnNEPlVY-23" value="" style="endArrow=classic;html=1;rounded=0;exitX=0.5;exitY=1;exitDx=0;exitDy=0;entryX=0.5;entryY=0;entryDx=0;entryDy=0;" edge="1" parent="1" source="mFH2gtZomauXbnNEPlVY-20" target="mFH2gtZomauXbnNEPlVY-25">
          <mxGeometry width="50" height="50" relative="1" as="geometry">
            <mxPoint x="610" y="590" as="sourcePoint" />
            <mxPoint x="680" y="640" as="targetPoint" />
          </mxGeometry>
        </mxCell>
        <mxCell id="mFH2gtZomauXbnNEPlVY-27" style="edgeStyle=orthogonalEdgeStyle;rounded=0;orthogonalLoop=1;jettySize=auto;html=1;" edge="1" parent="1" source="mFH2gtZomauXbnNEPlVY-24">
          <mxGeometry relative="1" as="geometry">
            <mxPoint x="520" y="790" as="targetPoint" />
          </mxGeometry>
        </mxCell>
        <mxCell id="mFH2gtZomauXbnNEPlVY-31" value="rpa_type = 2" style="edgeLabel;html=1;align=center;verticalAlign=middle;resizable=0;points=[];" vertex="1" connectable="0" parent="mFH2gtZomauXbnNEPlVY-27">
          <mxGeometry x="-0.0056" y="-3" relative="1" as="geometry">
            <mxPoint x="-3" y="-3" as="offset" />
          </mxGeometry>
        </mxCell>
        <mxCell id="mFH2gtZomauXbnNEPlVY-24" value="执行QDG系列文件导出逻辑" style="rounded=1;whiteSpace=wrap;html=1;fillColor=#fff2cc;strokeColor=#d6b656;" vertex="1" parent="1">
          <mxGeometry x="460" y="640" width="120" height="60" as="geometry" />
        </mxCell>
        <mxCell id="mFH2gtZomauXbnNEPlVY-28" style="edgeStyle=orthogonalEdgeStyle;rounded=0;orthogonalLoop=1;jettySize=auto;html=1;" edge="1" parent="1" source="mFH2gtZomauXbnNEPlVY-25">
          <mxGeometry relative="1" as="geometry">
            <mxPoint x="680" y="790" as="targetPoint" />
          </mxGeometry>
        </mxCell>
        <mxCell id="mFH2gtZomauXbnNEPlVY-32" value="rpa_type = 2" style="edgeLabel;html=1;align=center;verticalAlign=middle;resizable=0;points=[];" vertex="1" connectable="0" parent="mFH2gtZomauXbnNEPlVY-28">
          <mxGeometry x="0.0055" y="2" relative="1" as="geometry">
            <mxPoint y="-2" as="offset" />
          </mxGeometry>
        </mxCell>
        <mxCell id="mFH2gtZomauXbnNEPlVY-25" value="执行QDY系列文件导出逻辑" style="rounded=1;whiteSpace=wrap;html=1;fillColor=#fff2cc;strokeColor=#d6b656;" vertex="1" parent="1">
          <mxGeometry x="620" y="640" width="120" height="60" as="geometry" />
        </mxCell>
        <mxCell id="mFH2gtZomauXbnNEPlVY-26" value="QDG与QDY系列导出逻辑不同&lt;div&gt;根据传参文件名后缀判断走哪条路线&lt;/div&gt;" style="rounded=0;whiteSpace=wrap;html=1;fillColor=#e1d5e7;strokeColor=#9673a6;" vertex="1" parent="1">
          <mxGeometry x="670" y="566" width="200" height="38" as="geometry" />
        </mxCell>
        <mxCell id="mFH2gtZomauXbnNEPlVY-29" value="平台端根据rpa_type不同，调用不同的解析方法(xml、swt)" style="rounded=0;whiteSpace=wrap;html=1;fillColor=#d5e8d4;strokeColor=#82b366;" vertex="1" parent="1">
          <mxGeometry x="120" y="790" width="675" height="100" as="geometry" />
        </mxCell>
      </root>
    </mxGraphModel>
  </diagram>
</mxfile>
